<svg width="40" height="43" viewBox="0 0 40 43" fill="none" xmlns="http://www.w3.org/2000/svg">
<path d="M5.50002 37.9166H12.75V25.8333C12.75 25.1485 12.9816 24.5746 13.4448 24.1114C13.908 23.6482 14.482 23.4166 15.1667 23.4166H24.8334C25.5181 23.4166 26.092 23.6482 26.5552 24.1114C27.0184 24.5746 27.25 25.1485 27.25 25.8333V37.9166H34.5V16.1666L20 5.29158L5.50002 16.1666V37.9166ZM0.666687 37.9166V16.1666C0.666687 15.4013 0.837868 14.6763 1.18023 13.9916C1.52259 13.3069 1.99585 12.743 2.60002 12.2999L17.1 1.42492C17.9459 0.780474 18.9125 0.458252 20 0.458252C21.0875 0.458252 22.0542 0.780474 22.9 1.42492L37.4 12.2999C38.0042 12.743 38.4774 13.3069 38.8198 13.9916C39.1622 14.6763 39.3334 15.4013 39.3334 16.1666V37.9166C39.3334 39.2457 38.8601 40.3836 37.9136 41.3301C36.967 42.2766 35.8292 42.7499 34.5 42.7499H24.8334C24.1486 42.7499 23.5747 42.5183 23.1115 42.0551C22.6483 41.5919 22.4167 41.018 22.4167 40.3332V28.2499H17.5834V40.3332C17.5834 41.018 17.3518 41.5919 16.8886 42.0551C16.4254 42.5183 15.8514 42.7499 15.1667 42.7499H5.50002C4.17085 42.7499 3.03301 42.2766 2.08648 41.3301C1.13995 40.3836 0.666687 39.2457 0.666687 37.9166Z" fill="#2271D1"/>
</svg>
