<svg width="39" height="43" viewBox="0 0 39 43" fill="none" xmlns="http://www.w3.org/2000/svg">
<path d="M4.99996 37.9166H12.25V25.8333C12.25 25.1485 12.4816 24.5746 12.9447 24.1114C13.4079 23.6482 13.9819 23.4166 14.6666 23.4166H24.3333C25.018 23.4166 25.592 23.6482 26.0552 24.1114C26.5184 24.5746 26.75 25.1485 26.75 25.8333V37.9166H34V16.1666L19.5 5.29158L4.99996 16.1666V37.9166ZM0.166626 37.9166V16.1666C0.166626 15.4013 0.337807 14.6763 0.680168 13.9916C1.02253 13.3069 1.49579 12.743 2.09996 12.2999L16.6 1.42492C17.4458 0.780474 18.4125 0.458252 19.5 0.458252C20.5875 0.458252 21.5541 0.780474 22.4 1.42492L36.9 12.2999C37.5041 12.743 37.9774 13.3069 38.3197 13.9916C38.6621 14.6763 38.8333 15.4013 38.8333 16.1666V37.9166C38.8333 39.2457 38.36 40.3836 37.4135 41.3301C36.467 42.2766 35.3291 42.7499 34 42.7499H24.3333C23.6486 42.7499 23.0746 42.5183 22.6114 42.0551C22.1482 41.5919 21.9166 41.018 21.9166 40.3332V28.2499H17.0833V40.3332C17.0833 41.018 16.8517 41.5919 16.3885 42.0551C15.9253 42.5183 15.3513 42.7499 14.6666 42.7499H4.99996C3.67079 42.7499 2.53295 42.2766 1.58642 41.3301C0.63989 40.3836 0.166626 39.2457 0.166626 37.9166Z" fill="white"/>
</svg>
