<svg width="26" height="28" viewBox="0 0 26 28" fill="none" xmlns="http://www.w3.org/2000/svg">
<path d="M4.8189 28C3.94474 28 3.19641 27.6954 2.57391 27.0861C1.95141 26.4769 1.64015 25.7444 1.64015 24.8889V4.66667C1.18983 4.66667 0.812355 4.51759 0.507726 4.21944C0.203096 3.9213 0.0507812 3.55185 0.0507812 3.11111C0.0507812 2.67037 0.203096 2.30093 0.507726 2.00278C0.812355 1.70463 1.18983 1.55556 1.64015 1.55556H7.99764C7.99764 1.11481 8.14996 0.74537 8.45459 0.447222C8.75921 0.149074 9.13669 0 9.58701 0H15.9445C16.3948 0 16.7723 0.149074 17.0769 0.447222C17.3816 0.74537 17.5339 1.11481 17.5339 1.55556H23.8914C24.3417 1.55556 24.7192 1.70463 25.0238 2.00278C25.3284 2.30093 25.4807 2.67037 25.4807 3.11111C25.4807 3.55185 25.3284 3.9213 25.0238 4.21944C24.7192 4.51759 24.3417 4.66667 23.8914 4.66667V24.8889C23.8914 25.7444 23.5801 26.4769 22.9576 27.0861C22.3351 27.6954 21.5868 28 20.7126 28H4.8189ZM20.7126 4.66667H4.8189V24.8889H20.7126V4.66667ZM12.7658 16.9556L15.7856 19.9111C16.0769 20.1963 16.4478 20.3389 16.8981 20.3389C17.3484 20.3389 17.7193 20.1963 18.0107 19.9111C18.3021 19.6259 18.4478 19.263 18.4478 18.8222C18.4478 18.3815 18.3021 18.0185 18.0107 17.7333L14.9909 14.7778L18.0107 11.8222C18.3021 11.537 18.4478 11.1741 18.4478 10.7333C18.4478 10.2926 18.3021 9.92963 18.0107 9.64444C17.7193 9.35926 17.3484 9.21667 16.8981 9.21667C16.4478 9.21667 16.0769 9.35926 15.7856 9.64444L12.7658 12.6L9.74595 9.64444C9.45457 9.35926 9.08371 9.21667 8.63339 9.21667C8.18307 9.21667 7.81221 9.35926 7.52083 9.64444C7.22944 9.92963 7.08375 10.2926 7.08375 10.7333C7.08375 11.1741 7.22944 11.537 7.52083 11.8222L10.5406 14.7778L7.52083 17.7333C7.22944 18.0185 7.08375 18.3815 7.08375 18.8222C7.08375 19.263 7.22944 19.6259 7.52083 19.9111C7.81221 20.1963 8.18307 20.3389 8.63339 20.3389C9.08371 20.3389 9.45457 20.1963 9.74595 19.9111L12.7658 16.9556Z" fill="white"/>
</svg>
