<svg width="45" height="46" viewBox="0 0 45 46" fill="none" xmlns="http://www.w3.org/2000/svg">
<path d="M24.75 20.75V14C24.75 13.3625 24.5344 12.8281 24.1031 12.3969C23.6719 11.9656 23.1375 11.75 22.5 11.75C21.8625 11.75 21.3281 11.9656 20.8969 12.3969C20.4656 12.8281 20.25 13.3625 20.25 14V20.75H13.5C12.8625 20.75 12.3281 20.9656 11.8969 21.3969C11.4656 21.8281 11.25 22.3625 11.25 23C11.25 23.6375 11.4656 24.1719 11.8969 24.6031C12.3281 25.0344 12.8625 25.25 13.5 25.25H20.25V32C20.25 32.6375 20.4656 33.1719 20.8969 33.6031C21.3281 34.0344 21.8625 34.25 22.5 34.25C23.1375 34.25 23.6719 34.0344 24.1031 33.6031C24.5344 33.1719 24.75 32.6375 24.75 32V25.25H31.5C32.1375 25.25 32.6719 25.0344 33.1031 24.6031C33.5344 24.1719 33.75 23.6375 33.75 23C33.75 22.3625 33.5344 21.8281 33.1031 21.3969C32.6719 20.9656 32.1375 20.75 31.5 20.75H24.75ZM22.5 0.5C25.6125 0.5 28.5375 1.09063 31.275 2.27188C34.0125 3.45312 36.3938 5.05625 38.4188 7.08125C40.4437 9.10625 42.0469 11.4875 43.2281 14.225C44.4094 16.9625 45 19.8875 45 23C45 26.1125 44.4094 29.0375 43.2281 31.775C42.0469 34.5125 40.4437 36.8938 38.4188 38.9188C36.3938 40.9437 34.0125 42.5469 31.275 43.7281C28.5375 44.9094 25.6125 45.5 22.5 45.5C19.3875 45.5 16.4625 44.9094 13.725 43.7281C10.9875 42.5469 8.60625 40.9437 6.58125 38.9188C4.55625 36.8938 2.95312 34.5125 1.77188 31.775C0.590626 29.0375 0 26.1125 0 23C0 19.8875 0.590626 16.9625 1.77188 14.225C2.95312 11.4875 4.55625 9.10625 6.58125 7.08125C8.60625 5.05625 10.9875 3.45312 13.725 2.27188C16.4625 1.09063 19.3875 0.5 22.5 0.5ZM22.5 5C17.475 5 13.2188 6.74375 9.73125 10.2313C6.24375 13.7188 4.5 17.975 4.5 23C4.5 28.025 6.24375 32.2812 9.73125 35.7688C13.2188 39.2563 17.475 41 22.5 41C27.525 41 31.7812 39.2563 35.2688 35.7688C38.7563 32.2812 40.5 28.025 40.5 23C40.5 17.975 38.7563 13.7188 35.2688 10.2313C31.7812 6.74375 27.525 5 22.5 5Z" fill="white"/>
</svg>
