<svg width="45" height="45" viewBox="0 0 45 45" fill="none" xmlns="http://www.w3.org/2000/svg">
<path d="M20.25 24.75V31.5C20.25 32.1375 20.4656 32.6719 20.8969 33.1031C21.3281 33.5344 21.8625 33.75 22.5 33.75C23.1375 33.75 23.6719 33.5344 24.1031 33.1031C24.5344 32.6719 24.75 32.1375 24.75 31.5V24.75H31.5C32.1375 24.75 32.6719 24.5344 33.1031 24.1031C33.5344 23.6719 33.75 23.1375 33.75 22.5C33.75 21.8625 33.5344 21.3281 33.1031 20.8969C32.6719 20.4656 32.1375 20.25 31.5 20.25H24.75V13.5C24.75 12.8625 24.5344 12.3281 24.1031 11.8969C23.6719 11.4656 23.1375 11.25 22.5 11.25C21.8625 11.25 21.3281 11.4656 20.8969 11.8969C20.4656 12.3281 20.25 12.8625 20.25 13.5V20.25H13.5C12.8625 20.25 12.3281 20.4656 11.8969 20.8969C11.4656 21.3281 11.25 21.8625 11.25 22.5C11.25 23.1375 11.4656 23.6719 11.8969 24.1031C12.3281 24.5344 12.8625 24.75 13.5 24.75H20.25ZM22.5 45C19.3875 45 16.4625 44.4094 13.725 43.2281C10.9875 42.0469 8.60625 40.4437 6.58125 38.4188C4.55625 36.3937 2.95312 34.0125 1.77187 31.275C0.590625 28.5375 0 25.6125 0 22.5C0 19.3875 0.590625 16.4625 1.77187 13.725C2.95312 10.9875 4.55625 8.60625 6.58125 6.58125C8.60625 4.55625 10.9875 2.95312 13.725 1.77187C16.4625 0.590625 19.3875 0 22.5 0C25.6125 0 28.5375 0.590625 31.275 1.77187C34.0125 2.95312 36.3937 4.55625 38.4188 6.58125C40.4437 8.60625 42.0469 10.9875 43.2281 13.725C44.4094 16.4625 45 19.3875 45 22.5C45 25.6125 44.4094 28.5375 43.2281 31.275C42.0469 34.0125 40.4437 36.3937 38.4188 38.4188C36.3937 40.4437 34.0125 42.0469 31.275 43.2281C28.5375 44.4094 25.6125 45 22.5 45ZM22.5 40.5C27.525 40.5 31.7812 38.7562 35.2687 35.2687C38.7562 31.7812 40.5 27.525 40.5 22.5C40.5 17.475 38.7562 13.2188 35.2687 9.73125C31.7812 6.24375 27.525 4.5 22.5 4.5C17.475 4.5 13.2188 6.24375 9.73125 9.73125C6.24375 13.2188 4.5 17.475 4.5 22.5C4.5 27.525 6.24375 31.7812 9.73125 35.2687C13.2188 38.7562 17.475 40.5 22.5 40.5Z" fill="#2271D1"/>
</svg>
