<svg width="26" height="28" viewBox="0 0 26 28" fill="none" xmlns="http://www.w3.org/2000/svg">
<path d="M3.02756 28C2.32717 28 1.72761 27.7506 1.22885 27.2519C0.730091 26.7531 0.480713 26.1535 0.480713 25.4532C0.480713 24.7528 0.730091 24.1532 1.22885 23.6544C1.72761 23.1557 2.32717 22.9063 3.02756 22.9063H23.4023C24.1027 22.9063 24.7023 23.1557 25.201 23.6544C25.6998 24.1532 25.9491 24.7528 25.9491 25.4532C25.9491 26.1535 25.6998 26.7531 25.201 27.2519C24.7023 27.7506 24.1027 28 23.4023 28H3.02756ZM4.30098 20.3595C3.94018 20.3595 3.63774 20.2374 3.39367 19.9934C3.14959 19.7493 3.02756 19.4468 3.02756 19.086V16.1253C3.02756 15.9556 3.05939 15.7911 3.12306 15.6319C3.18673 15.4727 3.28224 15.3295 3.40958 15.2021L14.552 4.05967L19.3274 8.835L8.18491 19.9774C8.05757 20.1048 7.91431 20.2003 7.75514 20.264C7.59596 20.3276 7.43147 20.3595 7.26168 20.3595H4.30098ZM5.5744 17.8126H6.72048L15.7618 8.835L14.552 7.62525L5.5744 16.6665V17.8126ZM20.76 7.43424L15.9846 2.6589L18.2768 0.366746C18.5102 0.112061 18.8074 -0.00997514 19.1682 0.000636711C19.529 0.0112486 19.8261 0.133285 20.0596 0.366746L23.0521 3.35929C23.2856 3.59275 23.4023 3.88457 23.4023 4.23476C23.4023 4.58496 23.2856 4.88739 23.0521 5.14208L20.76 7.43424Z" fill="white"/>
</svg>
